<?xml version="1.0" encoding="UTF-8"?>
<svg width="17px" height="24px" viewBox="0 0 17 24" version="1.1" xmlns="http://www.w3.org/2000/svg" xmlns:xlink="http://www.w3.org/1999/xlink">
    <!-- Generator: Sketch 51.1 (57501) - http://www.bohemiancoding.com/sketch -->
    <title>noun_1048086_cc</title>
    <desc>Created with Sketch.</desc>
    <defs></defs>
    <g id="Symbols" stroke="none" stroke-width="1" fill="none" fill-rule="evenodd">
        <g id="btn-copy-2" transform="translate(-30.000000, -18.000000)" fill="#446FF3" fill-rule="nonzero">
            <g id="flashcards-copy-2">
                <g id="noun_1048086_cc" transform="translate(30.000000, 18.000000)">
                    <path d="M8.25,15.0665 C7.0465,15.0665 6.07075,16.042 6.07075,17.24575 C6.07075,18.4495 7.04625,19.425 8.25,19.425 C9.45375,19.425 10.42925,18.4495 10.42925,17.24575 C10.42925,16.042 9.4535,15.0665 8.25,15.0665 Z M14.13525,11.00125 L14.13525,6.05725 C14.13525,2.812 11.495,0.172 8.25,0.172 C5.005,0.172 2.36475,2.812 2.36475,6.05725 L2.36475,11.00125 C1.0225,11.243 0,12.41725 0,13.82825 L0,20.95325 C0,22.5385 1.28975,23.82825 2.875,23.82825 L13.625,23.82825 C15.21025,23.82825 16.5,22.5385 16.5,20.95325 L16.5,13.82825 C16.5,12.41725 15.4775,11.243 14.13525,11.00125 Z M4.11475,6.05725 C4.11475,3.777 5.96975,1.922 8.25,1.922 C10.53025,1.922 12.38525,3.777 12.38525,6.05725 L12.38525,10.95325 L4.11475,10.95325 L4.11475,6.05725 Z M14.75,20.95325 C14.75,21.5735 14.24525,22.07825 13.625,22.07825 L2.875,22.07825 C2.25475,22.07825 1.75,21.5735 1.75,20.95325 L1.75,13.82825 C1.75,13.208 2.25475,12.70325 2.875,12.70325 L13.625,12.70325 C14.24525,12.70325 14.75,13.208 14.75,13.82825 L14.75,20.95325 Z" id="Shape"></path>
                </g>
            </g>
        </g>
    </g>
</svg>