<svg xmlns="http://www.w3.org/2000/svg" xmlns:xlink="http://www.w3.org/1999/xlink" version="1.1" x="0px" y="0px" viewBox="0 0 100 125" style="enable-background:new 0 0 100 100;" xml:space="preserve"><style type="text/css">
	.st0{fill:none;stroke:#000000;stroke-width:2;stroke-linecap:round;stroke-linejoin:round;stroke-miterlimit:10;}
</style><path d="M50.1,12.8c-20.8,0-37.8,16.9-37.8,37.8s16.9,37.8,37.8,37.8s37.8-16.9,37.8-37.8S71,12.8,50.1,12.8z M50.1,86.2  c-19.7,0-35.8-16-35.8-35.8s16-35.8,35.8-35.8s35.8,16,35.8,35.8S69.9,86.2,50.1,86.2z"/><path d="M39.7,43.8c3.1,0,5.6-3,5.6-6.8s-2.5-6.8-5.6-6.8s-5.6,3-5.6,6.8S36.6,43.8,39.7,43.8z M39.7,32.2c2,0,3.6,2.1,3.6,4.8  c0,1.1-0.3,2.2-0.8,3c0-0.1,0-0.1,0-0.2c0-1.6-1.3-2.8-2.8-2.8c-1.6,0-2.8,1.3-2.8,2.8c0,0.1,0,0.1,0,0.2c-0.5-0.8-0.8-1.8-0.8-3  C36.1,34.4,37.7,32.2,39.7,32.2z"/><path d="M60.6,43.8c3.1,0,5.6-3,5.6-6.8s-2.5-6.8-5.6-6.8S55,33.3,55,37S57.5,43.8,60.6,43.8z M60.6,32.2c2,0,3.6,2.1,3.6,4.8  c0,1.1-0.3,2.2-0.8,3c0-0.1,0-0.1,0-0.2c0-1.6-1.3-2.8-2.8-2.8s-2.8,1.3-2.8,2.8c0,0.1,0,0.1,0,0.2c-0.5-0.8-0.8-1.8-0.8-3  C57,34.4,58.6,32.2,60.6,32.2z"/><path d="M67.9,54.7c-0.6,0-1,0.4-1,1c0,8-7.6,14.5-16.9,14.5s-16.9-6.5-16.9-14.5c0-0.6-0.4-1-1-1s-1,0.4-1,1  c0,9.1,8.5,16.5,18.9,16.5s18.9-7.4,18.9-16.5C68.9,55.1,68.5,54.7,67.9,54.7z"/><text x="0" y="115" fill="#000000" font-size="5px" font-weight="bold" font-family="'Helvetica Neue', Helvetica, Arial-Unicode, Arial, Sans-serif">Created by Made by Made</text><text x="0" y="120" fill="#000000" font-size="5px" font-weight="bold" font-family="'Helvetica Neue', Helvetica, Arial-Unicode, Arial, Sans-serif">from the Noun Project</text></svg>