<svg xmlns="http://www.w3.org/2000/svg" viewBox="0 0 117.407 100">
  <g id="public_profile" transform="translate(0.315 -4.5)">
    <g id="Group_532" data-name="Group 532" transform="translate(-0.315 4.5)">
      <path id="Path_618" data-name="Path 618" d="M116.17,50.5v-.179a12.713,12.713,0,0,0-1.789-5.367v-.179a11.824,11.824,0,0,0-3.936-3.936,5.357,5.357,0,0,0-1.789-.716L99.712,36.9l-3.578,6.977-1.073-.537-9.839-3.578-4.293,8.229L70.553,44.235,60.356,63.2H56.42l-10.2-18.962L35.848,47.991l-4.293-8.229L21.716,43.34l-1.073.537L17.064,36.9,8.12,40.12c-.537.179-1.252.537-1.789.716A11.345,11.345,0,0,0,2.4,44.592l-.179.358A12.848,12.848,0,0,0,.428,50.138v.179c-.179.716-.358,3.041-.716,6.8A6.856,6.856,0,0,0,1.5,62.3,6.5,6.5,0,0,0,6.51,64.449h5.9A6.182,6.182,0,0,0,14.2,68.206a6.5,6.5,0,0,0,5.009,2.147H24.4A3.044,3.044,0,0,1,24.22,71.6a7.1,7.1,0,0,0,1.789,5.188,6.5,6.5,0,0,0,5.009,2.147H85.58a6.769,6.769,0,0,0,5.009-2.147A6.856,6.856,0,0,0,92.377,71.6a2.653,2.653,0,0,0-.179-1.252h5.367a6.5,6.5,0,0,0,5.009-2.147,7.365,7.365,0,0,0,1.789-3.757h5.9a6.5,6.5,0,0,0,5.009-2.147,6.856,6.856,0,0,0,1.789-5.188C116.528,53.537,116.349,51.39,116.17,50.5ZM13.487,54.61v.358c-.179.894-.358,3.22-.716,6.977H6.51a5.075,5.075,0,0,1-3.041-1.252A4.858,4.858,0,0,1,2.4,57.651c.358-3.757.716-5.9.716-6.619v-.358A12.357,12.357,0,0,1,4.721,46.2,7.338,7.338,0,0,1,7.583,43.34c.358-.179.894-.358,1.252-.537l6.8-2.326,2.683,5.009a9.8,9.8,0,0,0-2.862,3.22l-.179.358A11.956,11.956,0,0,0,13.487,54.61Zm11.986,7.513a41.507,41.507,0,0,0-.894,5.725H19.032A5.075,5.075,0,0,1,15.991,66.6a4.858,4.858,0,0,1-1.073-3.041c.358-4.472.716-7.335.894-8.229v-.358A12.151,12.151,0,0,1,17.6,49.959a8.448,8.448,0,0,1,3.4-3.22c.537-.179.894-.537,1.431-.716l7.692-2.683,3.041,5.9a14.121,14.121,0,0,0-5.546,5.188A20.743,20.743,0,0,0,25.472,62.124ZM88.621,75.183a3.685,3.685,0,0,1-3.041,1.252H31.018a5.075,5.075,0,0,1-3.041-1.252A4.005,4.005,0,0,1,26.9,72.141a80.353,80.353,0,0,1,1.252-9.481V62.3a14,14,0,0,1,1.968-6.619,11.785,11.785,0,0,1,5.725-4.83l8.945-3.22,9.839,18.426h7.156L71.805,47.633l8.945,3.22a18.557,18.557,0,0,1,1.789.716,11.274,11.274,0,0,1,3.936,3.757V55.5a15.6,15.6,0,0,1,1.968,5.725v.537a100.077,100.077,0,0,1,1.073,10.376A2.906,2.906,0,0,1,88.621,75.183ZM100.606,66.6a3.685,3.685,0,0,1-3.041,1.252H92.02c-.358-3.4-.716-5.546-.716-6.44V61.05a15.426,15.426,0,0,0-2.326-6.8v-.179a13.872,13.872,0,0,0-4.83-4.83.657.657,0,0,0-.537-.179l3.041-5.9,7.692,2.683a3.6,3.6,0,0,1,1.431.716,8.388,8.388,0,0,1,3.4,3.22v.179a11.011,11.011,0,0,1,1.61,4.83v.358c.179.894.537,3.578.894,8.229A5,5,0,0,1,100.606,66.6Zm12.7-6.082a3.685,3.685,0,0,1-3.041,1.252h-6.082c-.358-3.757-.716-6.261-.716-6.977v-.358a15.353,15.353,0,0,0-1.968-5.9v-.179a12.343,12.343,0,0,0-2.862-3.22l2.683-5.009,6.619,2.326a8.722,8.722,0,0,1,1.252.537,7.338,7.338,0,0,1,2.862,2.862v.179a8.188,8.188,0,0,1,1.431,4.293v.358c.179.894.358,3.041.716,6.619A3.7,3.7,0,0,1,113.308,60.514Z" transform="translate(0.315 21.061)"/>
      <path id="Path_619" data-name="Path 619" d="M19.972,48.024a13.073,13.073,0,0,0,5.9-1.431,14.092,14.092,0,0,0,9.839,4.114,13.658,13.658,0,0,0,4.83-.894,15.653,15.653,0,0,0,11.449,4.83,15.955,15.955,0,0,0,11.449-4.83,15.338,15.338,0,0,0,4.83.894,13.772,13.772,0,0,0,9.839-4.114,13.073,13.073,0,0,0,5.9,1.431A12.522,12.522,0,1,0,76.5,25.483a14.012,14.012,0,0,0-8.05-2.683,14.281,14.281,0,0,0-8.05,2.5,15.722,15.722,0,0,0-16.458,0,14.281,14.281,0,0,0-8.05-2.5,13.587,13.587,0,0,0-8.05,2.683A12.522,12.522,0,0,0,7.807,35.5,12.036,12.036,0,0,0,19.972,48.024ZM93.854,35.5a9.81,9.81,0,0,1-9.839,9.839,10.612,10.612,0,0,1-4.114-.894,13.861,13.861,0,0,0-1.431-17.174,10.216,10.216,0,0,1,5.546-1.789A9.965,9.965,0,0,1,93.854,35.5ZM68.272,25.483a11.27,11.27,0,1,1,0,22.54,8.356,8.356,0,0,1-3.041-.537,16.34,16.34,0,0,0,2.683-8.766,16.091,16.091,0,0,0-5.188-11.807A11.62,11.62,0,0,1,68.272,25.483ZM65.231,38.721A13.149,13.149,0,1,1,51.993,25.483,13.442,13.442,0,0,1,65.231,38.721ZM41.439,26.914a15.8,15.8,0,0,0-5.188,11.807,14.947,14.947,0,0,0,2.683,8.766,9.086,9.086,0,0,1-3.041.537,11.27,11.27,0,0,1,0-22.54A12.776,12.776,0,0,1,41.439,26.914ZM19.972,25.483a8.939,8.939,0,0,1,5.546,1.789,13.7,13.7,0,0,0-3.757,9.481,13.938,13.938,0,0,0,2.326,7.692,10.612,10.612,0,0,1-4.114.894A9.81,9.81,0,0,1,10.133,35.5,10.083,10.083,0,0,1,19.972,25.483Z" transform="translate(6.71 9.937)"/>
      <rect id="Rectangle_1147" data-name="Rectangle 1147" width="2.683" height="12.343" transform="translate(57.451)"/>
      <rect id="Rectangle_1148" data-name="Rectangle 1148" width="2.683" height="12.343" transform="translate(78.165 3.512) rotate(22.508)"/>
      <rect id="Rectangle_1149" data-name="Rectangle 1149" width="2.683" height="12.343" transform="translate(96.074 14.761) rotate(45)"/>
      <rect id="Rectangle_1150" data-name="Rectangle 1150" width="12.343" height="2.683" transform="translate(39.215 3.588) rotate(67.5)"/>
      <rect id="Rectangle_1151" data-name="Rectangle 1151" width="12.343" height="2.683" transform="translate(21.398 14.884) rotate(45)"/>
    </g>
  </g>
</svg>
