<svg xmlns="http://www.w3.org/2000/svg" xmlns:xlink="http://www.w3.org/1999/xlink" version="1.1" x="0px" y="0px" viewBox="0 0 100 125" style="enable-background:new 0 0 100 100;" xml:space="preserve"><g><path d="M50,16c-18.7,0-34,15.3-34,34c0,18.7,15.3,34,34,34s34-15.3,34-34C84,31.3,68.7,16,50,16z M50,80c-16.5,0-30-13.5-30-30   s13.5-30,30-30s30,13.5,30,30S66.5,80,50,80z"/><path d="M50,52c-9.9,0-18,8.1-18,18c0,1.1,0.9,2,2,2s2-0.9,2-2c0-7.7,6.3-14,14-14s14,6.3,14,14c0,1.1,0.9,2,2,2s2-0.9,2-2   C68,60.1,59.9,52,50,52z"/><circle cx="40" cy="42" r="5"/><circle cx="60" cy="42" r="5"/></g><text x="0" y="115" fill="#000000" font-size="5px" font-weight="bold" font-family="'Helvetica Neue', Helvetica, Arial-Unicode, Arial, Sans-serif">Created by Shastry</text><text x="0" y="120" fill="#000000" font-size="5px" font-weight="bold" font-family="'Helvetica Neue', Helvetica, Arial-Unicode, Arial, Sans-serif">from the Noun Project</text></svg>