<svg xmlns="http://www.w3.org/2000/svg" viewBox="0 0 138.004 100">
  <defs>
    <style>
      .cls-1 {
        fill: #34485e;
      }
    </style>
  </defs>
  <g id="unlock" transform="translate(319 -7)">
    <g id="Group_525" data-name="Group 525" transform="translate(-319 7)">
      <path id="Path_598" data-name="Path 598" class="cls-1" d="M124.628,37.45,138,9H98.726L87.261,33.628,75.8,9H0L13.376,37.662V90.953H58.6v12.314A5.709,5.709,0,0,0,64.331,109H99.788a5.709,5.709,0,0,0,5.732-5.732V90.953h19.108ZM100.637,11.972h32.484l-11.04,23.567H89.809Zm-8.7,62.42H72.187V63.565a9.766,9.766,0,1,1,19.533,0V74.393ZM73.885,11.972l11.04,23.567h-69L4.883,11.972ZM58.6,79.913v7.643H16.561V38.724H85.775V51.038a9.932,9.932,0,0,0-3.609-.425A12.868,12.868,0,0,0,69.214,63.565V74.393H64.331A5.667,5.667,0,0,0,58.6,79.913Zm43.737,23.142a2.453,2.453,0,0,1-2.548,2.548H64.331a2.453,2.453,0,0,1-2.548-2.548V79.913a2.453,2.453,0,0,1,2.548-2.548H99.788a2.453,2.453,0,0,1,2.548,2.548Zm19.108-15.5H105.52V79.913a5.709,5.709,0,0,0-5.732-5.732H94.9V63.352a13.218,13.218,0,0,0-6.157-11.04V38.724h32.7V87.556Z" transform="translate(0 -9)"/>
      <rect id="Rectangle_1134" data-name="Rectangle 1134" class="cls-1" width="3.185" height="3.185" transform="translate(24.628 69.214)"/>
      <rect id="Rectangle_1135" data-name="Rectangle 1135" class="cls-1" width="3.185" height="3.185" transform="translate(24.628 62.42)"/>
      <path id="Path_599" data-name="Path 599" class="cls-1" d="M47.8,49.145a5.945,5.945,0,0,0-11.89,0A5.117,5.117,0,0,0,37.4,52.966l-1.7,7.856a2.693,2.693,0,0,0,.212,1.274,1.513,1.513,0,0,0,1.274.637H46.74a1.835,1.835,0,0,0,1.274-.637,1.4,1.4,0,0,0,.212-1.274l-1.7-7.856A5.928,5.928,0,0,0,47.8,49.145Zm-4.459,4.034h0l1.486,6.582h-5.52L40.8,53.391v-.212a1.651,1.651,0,0,0-.425-1.7,2.948,2.948,0,0,1-1.062-2.123,2.76,2.76,0,1,1,5.52,0,2.613,2.613,0,0,1-1.062,2.123A1.331,1.331,0,0,0,43.343,53.179Z" transform="translate(40.096 29.411)"/>
    </g>
  </g>
</svg>
