<?xml version="1.0" encoding="UTF-8"?>
<svg width="163px" height="58px" viewBox="0 0 163 58" version="1.1" xmlns="http://www.w3.org/2000/svg" xmlns:xlink="http://www.w3.org/1999/xlink">
    <!-- Generator: Sketch 51.1 (57501) - http://www.bohemiancoding.com/sketch -->
    <title>_pilot.cards</title>
    <desc>Created with Sketch.</desc>
    <defs>
        <linearGradient x1="50%" y1="0%" x2="50%" y2="100%" id="linearGradient-1">
            <stop stop-color="#4F80F7" offset="0%"></stop>
            <stop stop-color="#284CEC" offset="100%"></stop>
        </linearGradient>
    </defs>
    <g id="Page-1" stroke="none" stroke-width="1" fill="none" fill-rule="evenodd">
        <g id="landing-page" transform="translate(-103.000000, -36.000000)">
            <g id="//-Header" transform="translate(103.000000, -239.000000)">
                <g id="_navigation" transform="translate(0.000000, 274.000000)">
                    <g id="_pilot.cards">
                        <path d="M72.619,58.097 C72.1800078,58.0967892 71.742942,58.038962 71.319,57.925 L13.577,42.452 L13.577,36.016 C14.6277723,37.4267574 16.2869527,38.2535631 18.046,38.243 C19.8222302,38.2953023 21.5275727,37.5449223 22.689,36.2 C23.9510604,34.6197523 24.5874987,32.6303487 24.477,30.611 C24.5902144,28.5985097 23.9535474,26.6154721 22.69,25.045 C21.5218866,23.7116506 19.818844,22.9703521 18.047,23.024 C16.2908213,22.9986479 14.6289413,23.8167585 13.578,25.224 L13.578,23.39 L9.767,23.39 L9.767,41.432 L3.706,39.808 C1.0405651,39.0906916 -0.540962874,36.3508677 0.171,33.684 L7.935,4.706 C8.27714959,3.42440301 9.11502024,2.33153249 10.2638445,1.6683885 C11.4126688,1.00524451 12.7780882,0.826294291 14.059,1.171 L81.677,19.288 C84.3442519,20.0029421 85.9269208,22.7447424 85.212,25.412 L77.445,54.39 C76.8585285,56.5740337 74.8804021,58.0934938 72.619,58.097 Z M59.377,23.39 L59.377,26.716 L61.777,26.716 L61.777,34.245 C61.7009788,35.3405791 62.0801149,36.4190186 62.825,37.226 C63.6636169,37.9536921 64.7562623,38.3197049 65.864,38.244 C67.0029103,38.3324307 68.1345227,37.9985356 69.043,37.306 L68.238,34.392 C68.0877545,34.5443098 67.9007124,34.6552261 67.695,34.714 C67.440424,34.8012359 67.1731074,34.845507 66.904,34.845 C66.5270854,34.8595853 66.1665417,34.6903125 65.937,34.391 C65.6935779,34.0556001 65.5699584,33.6481136 65.586,33.234 L65.586,26.715 L68.53,26.715 L68.53,23.39 L65.592,23.39 L65.592,19.42 L61.783,19.42 L61.783,23.39 L59.377,23.39 Z M50.485,23.024 C49.0550906,22.9965643 47.6446795,23.3588463 46.405,24.072 C45.2764513,24.7228473 44.3528673,25.6769172 43.739,26.826 C43.1328458,27.9950177 42.8237538,29.2952643 42.839,30.612 C42.8252964,31.9352025 43.1320269,33.2420666 43.733,34.421 C44.3500907,35.5736784 45.2755664,36.5320461 46.406,37.189 C48.951676,38.5953718 52.041324,38.5953718 54.587,37.189 C55.7211844,36.5329435 56.647842,35.5709385 57.261,34.413 C57.8659602,33.238519 58.174912,31.934056 58.161,30.613 C58.1762462,29.2962643 57.8671542,27.9960177 57.261,26.827 C56.6452665,25.6766228 55.7187317,24.7223681 54.587,24.073 C53.341014,23.3590333 51.9247957,22.9961663 50.489,23.023 L50.485,23.024 Z M34.83,17.867 L34.83,34.244 C34.7538302,35.3394184 35.1325814,36.4177923 35.877,37.225 C36.7156169,37.9526921 37.8082623,38.3187049 38.916,38.243 C40.0549103,38.3314307 41.1865227,37.9975356 42.095,37.305 L41.277,34.391 C41.1293622,34.5426024 40.9450809,34.6535157 40.742,34.713 C40.4902937,34.8006612 40.2255326,34.8449572 39.959,34.844 C39.5821198,34.858416 39.22165,34.6891779 38.992,34.39 C38.7485779,34.0546001 38.6249584,33.6471136 38.641,33.233 L38.641,17.867 L34.83,17.867 Z M73.092,33.351 C71.7562714,33.3687654 70.6777654,34.4472714 70.66,35.783 C70.6570646,36.428047 70.9161931,37.046635 71.378,37.497 C72.1555289,38.2635426 73.3499354,38.4147862 74.2939892,37.8662416 C75.2380431,37.3176971 75.6981046,36.2051213 75.41717,35.1500315 C75.1362354,34.0949416 74.183832,33.3584573 73.092,33.352 L73.092,33.351 Z M27.242,23.39 L27.242,37.877 L31.051,37.877 L31.051,23.39 L27.242,23.39 Z M29.132,17.296 C27.8884852,17.3014804 26.8819291,18.3084829 26.877,19.552 C26.8771739,20.4700878 27.4308239,21.2975114 28.2794191,21.6478991 C29.1280143,21.9982867 30.1041451,21.8025146 30.752,21.152 C31.183935,20.7324262 31.4250076,20.1541412 31.419,19.552 C31.428592,18.9491657 31.1869504,18.3695157 30.752,17.952 C30.3239523,17.5217163 29.7388302,17.284778 29.132,17.296 Z M50.489,34.845 C49.4462469,34.887197 48.4449862,34.433663 47.789,33.622 C47.1174523,32.7648247 46.7675088,31.6994255 46.8,30.611 C46.7674847,29.5317479 47.1178183,28.475788 47.789,27.63 C48.4496001,26.8258792 49.449203,26.3782792 50.489,26.421 C51.536015,26.3763077 52.5437411,26.8235694 53.213,27.63 C53.8899857,28.4732608 54.2445012,29.5300716 54.213,30.611 C54.2469551,31.7035881 53.8926557,32.7728635 53.213,33.629 C52.5461133,34.4393159 51.5375056,34.8895607 50.489,34.845 Z M16.842,34.845 C16.1959658,34.8333727 15.5624421,34.6648677 14.996,34.354 C14.4329108,34.0773624 13.9458246,33.6675098 13.577,33.16 L13.577,28.06 C13.94393,27.553706 14.4326842,27.1481879 14.998,26.881 C15.5687847,26.5848841 16.2010216,26.4266536 16.844,26.419 C17.8602801,26.3882849 18.8371981,26.8129362 19.508,27.577 C20.2164355,28.4241335 20.582096,29.5057749 20.533,30.609 C20.5834048,31.7233613 20.2181187,32.816725 19.508,33.677 C18.8402812,34.4475546 17.8611214,34.8765339 16.842,34.845 Z" id="card" fill="url(#linearGradient-1)" fill-rule="nonzero"></path>
                        <g id="cards" transform="translate(88.877000, 11.000000)" fill="#464646" font-family="ProximaNovaA-Bold, Proxima Nova Alt" font-size="30" font-weight="bold">
                            <text>
                                <tspan x="0" y="27">cards</tspan>
                            </text>
                        </g>
                    </g>
                </g>
            </g>
        </g>
    </g>
</svg>