<svg xmlns="http://www.w3.org/2000/svg" viewBox="0 0 116.964 100">
  <g id="answer_question" transform="translate(-75.43 -10.5)">
    <g id="Group_530" data-name="Group 530" transform="translate(75.43 10.5)">
      <path id="Path_610" data-name="Path 610" d="M46.514,35.4a5.4,5.4,0,0,0,.893-2.857A4.728,4.728,0,0,0,42.764,27.9H34.55a15.767,15.767,0,0,0,1.964-8.036V17.721a4.821,4.821,0,1,0-9.643,0,13.579,13.579,0,0,1-3.036,8.571l-1.071,1.429H12.943V30.4H24.371l1.964-2.5a16.561,16.561,0,0,0,3.571-10.357A2.063,2.063,0,0,1,32.05,15.4a2.171,2.171,0,0,1,2.143,2.143v2.143a14.316,14.316,0,0,1-1.964,7.143l-2.143,3.393H42.943a1.982,1.982,0,0,1,1.964,1.964,2.364,2.364,0,0,1-2.321,2.321H39.014v2.679h5.357a2.143,2.143,0,1,1,0,4.286H39.014V44.15h3.75a2.171,2.171,0,0,1,2.143,2.143,2.063,2.063,0,0,1-2.143,2.143H39.193v2.679H40.8a2.143,2.143,0,0,1,0,4.286H29.729a5.214,5.214,0,0,1-1.607-.357l-2.5-1.25a7,7,0,0,0-3.214-.714H10.8v2.857H22.407a4.755,4.755,0,0,1,2.143.536l2.5,1.25a7.165,7.165,0,0,0,2.679.536H40.8a4.8,4.8,0,0,0,4.821-4.821,5.813,5.813,0,0,0-.714-2.5,4.734,4.734,0,0,0,2.857-4.286,4.386,4.386,0,0,0-.893-2.679,4.891,4.891,0,0,0,2.5-4.107A5.733,5.733,0,0,0,46.514,35.4Z" transform="translate(8.843 2.1)"/>
      <rect id="Rectangle_1144" data-name="Rectangle 1144" width="2.679" height="2.679" transform="translate(25.179 49.464)"/>
      <rect id="Rectangle_1145" data-name="Rectangle 1145" width="2.679" height="2.679" transform="translate(30.536 49.464)"/>
      <path id="Path_611" data-name="Path 611" d="M116.764,73.607A30.866,30.866,0,0,0,85.871,42.893a28.239,28.239,0,0,0-6.786.714A39.645,39.645,0,0,0-.2,44.143,40.955,40.955,0,0,0,7.3,67.536L2.121,80.929l15.357-3.75c7.679,6.25,18.75,6.786,21.964,6.786a38.779,38.779,0,0,0,16.429-3.571,30.452,30.452,0,0,0,30,24.107c2.5,0,10.893-.357,16.964-5.179l12.321,3.036L111.05,91.643A31.818,31.818,0,0,0,116.764,73.607ZM18.729,74.679l-.536-.536L6.407,77l3.929-10L9.8,66.464A37.084,37.084,0,1,1,39.443,81.107C33.014,81.286,24.264,79.5,18.729,74.679Zm83.393,21.786-.536.536c-4.286,3.571-10.893,5-15.714,5A28.134,28.134,0,0,1,58.193,79.321a36.205,36.205,0,0,0,6.071-4.107h38.571V72.536H67.3a41.9,41.9,0,0,0,6.429-8.393h23.75V61.464H75.157a38.718,38.718,0,0,0,3.75-15,27.985,27.985,0,0,1,35,27.321,27.763,27.763,0,0,1-5.714,16.964l-.536.536,2.857,7.321Z" transform="translate(0.2 -4.5)"/>
      <rect id="Rectangle_1146" data-name="Rectangle 1146" width="29.107" height="2.679" transform="translate(68.214 78.929)"/>
    </g>
  </g>
</svg>
