<svg xmlns="http://www.w3.org/2000/svg" viewBox="0 0 124.707 100">
  <defs>
    <style>
      .cls-1 {
        fill: #34485e;
      }
    </style>
  </defs>
  <g id="challenge" transform="translate(0.214 -6.3)">
    <g id="Group_520" data-name="Group 520" transform="translate(-0.214 6.3)">
      <path id="Path_577" data-name="Path 577" class="cls-1" d="M78.1,27.127,73.527,12.842a4.777,4.777,0,0,0-5.9-3.048,4.5,4.5,0,0,0-2.667,2.286,4.366,4.366,0,0,0-.381,3.429l1.333,4C54.289,33.413,44.956,40.27,32.575,44.461l-1.333-4.571L10.67,46.556a15.823,15.823,0,0,0-9.143,7.619,14.971,14.971,0,0,0-.952,11.81v.19A15.086,15.086,0,0,0,15.242,77.032a15.4,15.4,0,0,0,3.048-.19l14.476,25.714a1.6,1.6,0,0,0,1.333.762,1.145,1.145,0,0,0,.762-.19l8.19-4.571a1.749,1.749,0,0,0,.762-1.143l.571-3.81a5.258,5.258,0,0,0-3.238-5.714l-.952-.381a2.565,2.565,0,0,1-1.524-2.857l.19-.762a5.258,5.258,0,0,0-3.238-5.714l-.762-.381a2.565,2.565,0,0,1-1.524-2.857l.381-2.857,7.048-2.286-1.333-4.381a59.252,59.252,0,0,1,17.143-2.476c7.048,0,14.667,1.143,24.571,3.619l1.333,4a4.515,4.515,0,0,0,4.381,3.238,4.734,4.734,0,0,0,1.524-.19,4.5,4.5,0,0,0,2.667-2.286,4.366,4.366,0,0,0,.381-3.429L86.861,53.6a10.208,10.208,0,0,0,5.333-5.9,14.692,14.692,0,0,0,.19-10.286C89.908,30.556,83.813,26.175,78.1,27.127ZM33.527,80.461l.762.381A2.565,2.565,0,0,1,35.813,83.7l-.19.762a5.258,5.258,0,0,0,3.238,5.714l.762.381a2.449,2.449,0,0,1,1.524,2.667l-.381,3.048L34.48,99.7,21.146,75.889l9.333-2.857-.19,1.524A5.5,5.5,0,0,0,33.527,80.461ZM19.051,73.6a13.2,13.2,0,0,1-3.81.571,12.864,12.864,0,0,1-12.19-8.952v-.19a12.867,12.867,0,0,1,8.381-15.81L29.146,43.7l.571,1.714h0l6.476,20.952h0l.571,1.714ZM56.384,60.08a59.524,59.524,0,0,0-18.1,2.667l-2.667-8.381-2.286-7.048c14.286-4.762,24-13.333,33.714-24.381L79.813,63.508C70.48,61.223,63.242,60.08,56.384,60.08ZM88,70.175a1.951,1.951,0,0,1-1.143.952,1.524,1.524,0,0,1-2.1-1.143L67.432,14.937a1.173,1.173,0,0,1,.19-1.333,1.951,1.951,0,0,1,1.143-.952h.571a1.929,1.929,0,0,1,1.714,1.143L88.384,68.842A3.532,3.532,0,0,1,88,70.175Zm1.143-23.619a7.951,7.951,0,0,1-3.619,4.19L78.861,29.794c4.381-.381,8.762,3.048,10.476,8.19A13.115,13.115,0,0,1,89.146,46.556Z" transform="translate(0.214 -3.318)"/>
      <path id="Path_578" data-name="Path 578" class="cls-1" d="M74.514,30.681A40.5,40.5,0,0,0,54.133,6.3L52.8,8.776A38.134,38.134,0,0,1,71.848,31.443a38.8,38.8,0,0,1-2.667,29.524L71.657,62.3A39.778,39.778,0,0,0,74.514,30.681Z" transform="translate(48.18 -6.3)"/>
      <path id="Path_579" data-name="Path 579" class="cls-1" d="M51.733,10.9,50.4,13.376A28.343,28.343,0,0,1,64.5,30.329a28.2,28.2,0,0,1-1.9,21.9l2.476,1.333a32.241,32.241,0,0,0,2.1-24.19A31.536,31.536,0,0,0,51.733,10.9Z" transform="translate(46.008 -2.138)"/>
      <path id="Path_580" data-name="Path 580" class="cls-1" d="M49.333,15.6,48,18.076A19.039,19.039,0,0,1,56,43.6l2.476,1.333A21.709,21.709,0,0,0,49.333,15.6Z" transform="translate(43.837 2.114)"/>
    </g>
  </g>
</svg>
