<svg xmlns="http://www.w3.org/2000/svg" viewBox="0 0 123.077 100">
  <defs>
    <style>
      .cls-1 {
        fill: #34485e;
      }
    </style>
  </defs>
  <g id="earn-tokens" transform="translate(0.3 -5.9)">
    <g id="Group_521" data-name="Group 521" transform="translate(-0.3 5.9)">
      <path id="Path_581" data-name="Path 581" class="cls-1" d="M93.509,5.9C77.186,5.9,64.24,11.529,64.24,18.846V49.99a29.068,29.068,0,0,0-9.006.375V36.482c0-7.317-12.2-12.946-27.767-12.946S-.3,29.165-.3,36.482V92.767c0,7.317,12.2,12.946,27.767,12.946a48.975,48.975,0,0,0,21.764-4.69,33.767,33.767,0,0,0,6.567,2.251,26.791,26.791,0,0,0,5.441.563,29.093,29.093,0,0,0,10.507-2.064c5.066,2.439,13.7,4.128,21.764,4.128,16.323,0,29.268-5.629,29.268-12.946V18.846C122.777,11.529,109.831,5.9,93.509,5.9Zm0,2.814c15.572,0,26.454,5.441,26.454,10.131,0,4.878-10.882,10.131-26.454,10.131S67.055,23.536,67.055,18.846C67.055,13.968,77.936,8.714,93.509,8.714ZM27.467,26.35c14.822,0,24.953,5.253,24.953,10.131S42.477,46.613,27.467,46.613c-14.822,0-24.953-5.253-24.953-10.131C2.7,31.6,12.646,26.35,27.467,26.35ZM2.7,60.684C7.017,65,16.4,68,27.467,68a59.01,59.01,0,0,0,8.255-.563,26.281,26.281,0,0,0-.75,16.135,52.463,52.463,0,0,1-7.5.563c-14.822,0-24.953-5.253-24.953-10.131V60.684ZM27.467,102.9c-14.822,0-24.953-5.253-24.953-10.131V79.634c4.5,4.315,13.884,7.129,24.953,7.129a61.03,61.03,0,0,0,8.255-.563A27.735,27.735,0,0,0,46.229,99.333C40.976,101.772,34.6,102.9,27.467,102.9Zm28.893-2.251A24.125,24.125,0,0,1,42.477,61.622l.375,4.5,2.814-.188-.75-9.193-9.006.75.188,2.814,3.94-.375a21.3,21.3,0,0,0-2.814,4.315,53.43,53.43,0,0,1-9.568.75C12.833,65,2.7,59.746,2.7,54.868V42.11c4.5,4.315,13.884,7.129,24.953,7.129s20.45-3,24.953-7.129v9.006a29.935,29.935,0,0,0-4.315,1.876l1.313,2.439a22.953,22.953,0,0,1,4.5-1.876,24.487,24.487,0,0,1,27.2,9.756A24.4,24.4,0,0,1,56.36,100.647ZM93.509,102.9a61.359,61.359,0,0,1-18.574-2.814,3.924,3.924,0,0,0,1.126-.75,26.427,26.427,0,0,0,9.568-11.257c2.251.188,5.253.375,7.692.375,11.82,0,21.764-3,26.454-7.317v11.82C119.963,97.645,109.081,102.9,93.509,102.9Zm0-17.261c-1.876,0-4.5-.188-6.754-.375a17.566,17.566,0,0,0,.75-3,25.215,25.215,0,0,0-.563-12.946c2.064.188,4.128.375,6.379.375,11.82,0,21.764-3,26.454-7.317V75.506C119.963,80.2,109.081,85.637,93.509,85.637Zm0-18.949c-2.627,0-5.066-.188-7.5-.375A19.625,19.625,0,0,0,83.565,62a27.487,27.487,0,0,0-16.7-11.445V43.423c4.69,4.315,14.634,7.317,26.454,7.317s21.764-3,26.454-7.317V56.744C119.963,61.435,109.081,66.688,93.509,66.688Zm0-18.762c-15.572,0-26.454-5.441-26.454-10.131V24.474c4.69,4.315,14.634,7.317,26.454,7.317s21.764-3,26.454-7.317V37.795C119.963,42.485,109.081,47.926,93.509,47.926Z" transform="translate(0.3 -5.9)"/>
      <path id="Path_582" data-name="Path 582" class="cls-1" d="M39.357,43.255a3.276,3.276,0,0,1,1.313,2.627h2.814A6.317,6.317,0,0,0,41.233,41a7.469,7.469,0,0,0-3.94-1.689V35H34.479v4.315A7.469,7.469,0,0,0,30.539,41a6.41,6.41,0,0,0,0,9.756,7.864,7.864,0,0,0,5.253,1.876,5.238,5.238,0,0,1,3.377,1.126,3.283,3.283,0,0,1,0,5.253,5.914,5.914,0,0,1-6.942,0,3.276,3.276,0,0,1-1.313-2.627H28.1a6.317,6.317,0,0,0,2.251,4.878,7.469,7.469,0,0,0,3.94,1.689V67.27h2.814V62.955a9.329,9.329,0,0,0,3.94-1.689,6.41,6.41,0,0,0,0-9.756,7.864,7.864,0,0,0-5.253-1.876,5.238,5.238,0,0,1-3.377-1.126,3.283,3.283,0,0,1,0-5.253A5.912,5.912,0,0,1,39.357,43.255Z" transform="translate(25.183 19.597)"/>
    </g>
  </g>
</svg>
