<svg xmlns="http://www.w3.org/2000/svg" viewBox="0 0 119.091 100">
  <g id="multiplayer" transform="translate(0.2 -5)">
    <g id="Group_531" data-name="Group 531" transform="translate(-0.2 5)">
      <path id="Path_612" data-name="Path 612" d="M113.436,83.545l5.455-1.091V73.545l-5.455-.909A21.826,21.826,0,0,0,111.073,67l3.091-4.545L107.8,56.091l-4.545,3.091A16.506,16.506,0,0,0,97.618,57l-1.091-5.455H91.8c.364-3.818.545-7.818.545-11.636,0-12.545-9.636-18.182-18.545-18.182H70.891a19.535,19.535,0,0,0-16.909,9.636H46.891c-.727-1.636-2.182-5.818,1.091-11.273A12.4,12.4,0,0,0,47.073,5l-2,1.818a9.434,9.434,0,0,1,.545,11.636c-3.455,5.455-2.727,10-1.818,12.545H38.164a19.758,19.758,0,0,0-16.909-9.636H18.345C9.073,21.364-.2,27-.2,39.545c0,11.091,1.818,22.364,4,32.727A16.286,16.286,0,0,0,19.255,85,13.977,13.977,0,0,0,32.709,74.455c.909-3.636,2.727-10.182,3.273-12.545H56.164c1.273,4.727,2.364,8.727,3.273,12.545A13.929,13.929,0,0,0,71.618,85a29.009,29.009,0,0,0,1.818,4.182l-3.091,4.909,6.364,6.364,4.545-3.091a16.506,16.506,0,0,0,5.636,2.182L87.982,105h8.909l.909-5.455a21.825,21.825,0,0,0,5.636-2.364l4.545,3.091,6.364-6.364-3.273-4.727A21.826,21.826,0,0,0,113.436,83.545ZM61.982,74.091c-1.091-4-2.182-8.364-3.636-13.636l-.182-.909H33.982l-.364,1.091s-2.545,8.909-3.636,13.636a11.1,11.1,0,0,1-10.909,8.545A13.591,13.591,0,0,1,6.164,72.455c-2-10.364-3.818-21.273-3.818-32.182,0-11.455,8.545-15.455,15.818-15.455h2.909a17.217,17.217,0,0,1,14.909,8.909l.545.364H55.436l.364-.727a17.1,17.1,0,0,1,15.091-9.091H73.8c7.818,0,15.818,4.727,15.818,15.455,0,10.909-1.818,22-3.818,32.182A13.76,13.76,0,0,1,72.891,82.455v1.273h0V82.455A11.043,11.043,0,0,1,61.982,74.091ZM89.073,69a8.493,8.493,0,0,1,3.091-.545,9.818,9.818,0,0,1,0,19.636,9.456,9.456,0,0,1-9.091-6.364A15.067,15.067,0,0,0,88.345,73,37.618,37.618,0,0,0,89.073,69Zm21.818,13.091a21.217,21.217,0,0,1-2.545,6.364l-.545.727,2.909,4.182-3.091,3.091-4.182-2.909-.727.545a19.836,19.836,0,0,1-6.364,2.727L95.436,97l-.909,5.091H90.164l-.909-4.909L88.345,97a21.217,21.217,0,0,1-6.364-2.545l-.727-.545-4.182,2.909-3.091-3.091,2.909-4.182-.727-.909a12.059,12.059,0,0,1-1.636-3.455A12.675,12.675,0,0,0,80.709,83a12.359,12.359,0,0,0,11.455,7.455,12.545,12.545,0,0,0,0-25.091,12,12,0,0,0-2.545.182c.727-3.818,1.273-7.636,1.818-11.636h2.909l.909,4.909.909.182a19.475,19.475,0,0,1,6.364,2.545l.727.545,4.182-2.909,3.091,3.091-2.909,4.182.545.727a21.724,21.724,0,0,1,2.727,6.364l.182.909,5.091.909v4.364l-5.091,1.455Z" transform="translate(0.2 -5)"/>
      <path id="Path_613" data-name="Path 613" d="M46.127,34.027h10V31.3h-10v-10H43.4v10h-10v2.727h10v10h2.727Z" transform="translate(27.691 8.336)"/>
      <path id="Path_614" data-name="Path 614" d="M17.527,24.2a4.727,4.727,0,1,0,0,9.455,4.814,4.814,0,0,0,4.727-4.727A4.586,4.586,0,0,0,17.527,24.2Zm0,6.727a2,2,0,1,1,2-2A2.018,2.018,0,0,1,17.527,30.927Z" transform="translate(10.836 10.709)"/>
      <path id="Path_615" data-name="Path 615" d="M8.327,24.2a4.727,4.727,0,0,0,0,9.455,4.814,4.814,0,0,0,4.727-4.727A4.694,4.694,0,0,0,8.327,24.2Zm0,6.727a2,2,0,1,1,2-2A2.018,2.018,0,0,1,8.327,30.927Z" transform="translate(3.309 10.709)"/>
      <path id="Path_616" data-name="Path 616" d="M12.932,29.055a4.727,4.727,0,0,0,0-9.455A4.814,4.814,0,0,0,8.2,24.327,4.584,4.584,0,0,0,12.932,29.055Zm0-6.909a2,2,0,1,1-2,2A1.908,1.908,0,0,1,12.932,22.145Z" transform="translate(7.068 6.945)"/>
      <path id="Path_617" data-name="Path 617" d="M12.927,28.8a4.727,4.727,0,0,0,0,9.455,4.727,4.727,0,1,0,0-9.455Zm0,6.727a2,2,0,1,1,2-2A2.018,2.018,0,0,1,12.927,35.527Z" transform="translate(7.073 14.473)"/>
    </g>
  </g>
</svg>
