<svg xmlns="http://www.w3.org/2000/svg" viewBox="0 0 130.938 100">
  <defs>
    <style>
      .cls-1 {
        fill: #34485e;
      }
    </style>
  </defs>
  <g id="sign-up" transform="translate(0.3 -7.4)">
    <g id="Group_523" data-name="Group 523" transform="translate(-0.3 7.4)">
      <rect id="Rectangle_1123" data-name="Rectangle 1123" class="cls-1" width="2.994" height="2.994" transform="translate(104.391 7.585)"/>
      <rect id="Rectangle_1124" data-name="Rectangle 1124" class="cls-1" width="2.994" height="2.994" transform="translate(111.976 7.585)"/>
      <rect id="Rectangle_1125" data-name="Rectangle 1125" class="cls-1" width="2.994" height="2.994" transform="translate(96.806 7.585)"/>
      <path id="Path_586" data-name="Path 586" class="cls-1" d="M123.452,94.226V12.989A5.579,5.579,0,0,0,117.864,7.4H12.275a5.579,5.579,0,0,0-5.589,5.589V94.226H-.3v5.988L5.289,107.4h119.76l5.589-7.186V94.226ZM12.275,10.594H118.063a2.642,2.642,0,0,1,2.595,2.595v8.782H9.88V13.188A2.477,2.477,0,0,1,12.275,10.594ZM9.88,24.965H120.458V94.226H9.88ZM127.644,99.216l-3.992,5.389H6.886L2.894,99.216v-2H127.644Z" transform="translate(0.3 -7.4)"/>
      <rect id="Rectangle_1126" data-name="Rectangle 1126" class="cls-1" width="69.062" height="2.994" transform="translate(18.762 7.585)"/>
      <path id="Path_587" data-name="Path 587" class="cls-1" d="M48.478,36.2H45.484v8.184H37.5v2.994h7.984v7.984h2.994V47.378h7.984V44.384H48.478Z" transform="translate(37.949 21.285)"/>
      <path id="Path_588" data-name="Path 588" class="cls-1" d="M69.889,33.6a14.893,14.893,0,0,0-9.182,2.994,6.745,6.745,0,0,0-2.4-1.2L49.53,32.2,41.945,46.372h-2.4L31.965,32.2l-8.782,3.194a10.658,10.658,0,0,0-5.589,4.591,11.554,11.554,0,0,0-1.8,5.988c-.2.8-.8,6.786-1.2,13.772v1.6H58.512A15.7,15.7,0,0,0,69.69,65.933a15.227,15.227,0,0,0,11.377-4.79,15.905,15.905,0,0,0,0-22.754A15.546,15.546,0,0,0,69.889,33.6Zm-51.1,12.774v-.2a11.277,11.277,0,0,1,1.4-4.79,6.471,6.471,0,0,1,3.992-3.194l6.188-2.2,7.186,13.573h5.988l7.186-13.573,6.188,2.2a3.372,3.372,0,0,0,1,.4,16,16,0,0,0-2,19.76H17.794A108.477,108.477,0,0,1,18.792,46.372ZM79.071,59.146a13.283,13.283,0,0,1-9.381,3.792,13.64,13.64,0,0,1-9.381-3.792,13.012,13.012,0,0,1,0-18.563,13.283,13.283,0,0,1,9.381-3.792,13.64,13.64,0,0,1,9.381,3.792A13.012,13.012,0,0,1,79.071,59.146Z" transform="translate(15.141 17.301)"/>
      <path id="Path_589" data-name="Path 589" class="cls-1" d="M33.576,43.253a11.776,11.776,0,1,0,0-23.553A11.672,11.672,0,0,0,21.8,31.476,11.8,11.8,0,0,0,33.576,43.253Zm0-20.359a8.782,8.782,0,1,1-8.782,8.782A8.86,8.86,0,0,1,33.576,22.894Z" transform="translate(22.312 4.851)"/>
    </g>
  </g>
</svg>
