<?xml version="1.0" encoding="UTF-8"?>
<svg width="27px" height="30px" viewBox="0 0 27 30" version="1.1" xmlns="http://www.w3.org/2000/svg" xmlns:xlink="http://www.w3.org/1999/xlink">
    <!-- Generator: Sketch 51.1 (57501) - http://www.bohemiancoding.com/sketch -->
    <title>The Essentials 111</title>
    <desc>Created with Sketch.</desc>
    <defs></defs>
    <g id="Symbols" stroke="none" stroke-width="1" fill="none" fill-rule="evenodd">
        <g id="//-Navigation" transform="translate(-1673.000000, -35.000000)" fill="#717171" fill-rule="nonzero">
            <g id="The-Essentials-111">
                <g transform="translate(1673.000000, 35.000000)">
                    <path d="M26.5714286,26.1964286 C26.4642857,26.0357143 26.3035714,25.9821429 26.1428571,25.875 C25.3928571,25.5 22.9821429,24.3214286 22.7678571,15.6964286 C22.6607143,10.8214286 20.3035714,8.46428571 18.375,7.39285714 C17.3571429,6.80357143 16.2857143,6.48214286 15.375,6.26785714 C16.125,5.625 16.6071429,4.66071429 16.6071429,3.58928571 C16.6071429,1.60714286 15,0 12.9642857,0 C10.9285714,0 9.32142857,1.60714286 9.32142857,3.58928571 C9.32142857,4.66071429 9.80357143,5.625 10.5535714,6.26785714 C4.71428571,7.5 4.01785714,13.7142857 3.96428571,15.75 C3.91071429,17.8928571 3.75,24.375 0.589285714,25.9285714 C0.428571429,26.0357143 0.267857143,26.0892857 0.160714286,26.25 L0,26.4642857 L0.160714286,26.7857143 C0.321428571,27.1607143 0.375,27.2678571 3.91071429,27.2678571 C5.625,27.2678571 7.76785714,27.2678571 9.58928571,27.2142857 C10.0714286,28.875 11.625,30 13.4464286,30 C15.2142857,30 16.7142857,28.875 17.25,27.2678571 C19.0714286,27.3214286 21.1607143,27.375 22.875,27.375 C22.875,27.375 22.875,27.375 22.875,27.375 C26.4107143,27.375 26.4642857,27.1607143 26.625,26.8392857 L26.7857143,26.4107143 L26.5714286,26.1964286 Z M10.4464286,3.58928571 C10.4464286,2.19642857 11.5714286,1.07142857 13.0178571,1.07142857 C14.4107143,1.07142857 15.5357143,2.19642857 15.5357143,3.58928571 C15.5357143,4.82142857 14.6785714,5.78571429 13.5535714,6.05357143 C13.5535714,6.05357143 13.5,6.05357143 13.5,6.05357143 L13.4464286,6.05357143 C13.2857143,6.05357143 13.0178571,6.05357143 12.6964286,6.05357143 C12.5892857,6.05357143 12.5357143,6.05357143 12.4821429,6.05357143 C11.3035714,5.83928571 10.4464286,4.82142857 10.4464286,3.58928571 Z M13.4464286,28.9285714 C12.2678571,28.9285714 11.25,28.2321429 10.7678571,27.1607143 C11.9464286,27.1607143 12.9107143,27.1071429 13.3928571,27.1071429 C13.9285714,27.1071429 14.8928571,27.1607143 16.125,27.2142857 C15.5892857,28.2321429 14.5714286,28.9285714 13.4464286,28.9285714 Z M22.875,26.3571429 C22.875,26.3571429 22.875,26.3571429 22.875,26.3571429 C19.6071429,26.3571429 14.7857143,26.1428571 13.3928571,26.0892857 C12,26.1428571 7.23214286,26.1964286 3.91071429,26.1964286 C3.21428571,26.1964286 2.625,26.1428571 2.19642857,26.1428571 C3.375,25.0714286 4.875,22.5 5.03571429,15.8035714 C5.25,8.19642857 10.2857143,7.23214286 12.5357143,7.23214286 C12.6428571,7.23214286 12.75,7.23214286 12.8571429,7.23214286 L13.4464286,7.23214286 C14.7857143,7.23214286 21.4821429,7.66071429 21.6964286,15.8035714 C21.8571429,22.5 23.3571429,25.125 24.5357143,26.1964286 C24.1607143,26.25 23.5714286,26.3571429 22.875,26.3571429 Z" id="Shape"></path>
                </g>
            </g>
        </g>
    </g>
</svg>