<?xml version="1.0" encoding="UTF-8"?>
<svg width="26px" height="26px" viewBox="0 0 26 26" version="1.1" xmlns="http://www.w3.org/2000/svg" xmlns:xlink="http://www.w3.org/1999/xlink">
    <!-- Generator: Sketch 51.1 (57501) - http://www.bohemiancoding.com/sketch -->
    <title>noun_820390_cc</title>
    <desc>Created with Sketch.</desc>
    <defs></defs>
    <g id="Page-1" stroke="none" stroke-width="1" fill="none" fill-rule="evenodd">
        <g id="fl&gt;review" transform="translate(-1183.000000, -944.000000)" fill="#000000" fill-rule="nonzero">
            <g id="votes" transform="translate(381.000000, 897.000000)">
                <g id="Group" transform="translate(659.000000, 47.000000)">
                    <g id="noun_820390_cc" transform="translate(143.000000, 0.000000)">
                        <path d="M12.9688312,0.531168831 C6.09052429,0.531168831 0.468831169,6.11979317 0.468831169,13.0311688 C0.468831169,19.9425445 6.05745551,25.5311688 12.9688312,25.5311688 C19.8802068,25.5311688 25.4688312,19.9425445 25.4688312,13.0311688 C25.4688312,6.11979317 19.847138,0.531168831 12.9688312,0.531168831 Z M12.9688312,24.1272727 C6.82857143,24.1272727 1.81038961,19.1402597 1.81038961,12.9688312 C1.81038961,6.7974026 6.7974026,1.81038961 12.9688312,1.81038961 C19.1402597,1.81038961 24.1272727,6.7974026 24.1272727,12.9688312 C24.1272727,19.1402597 19.1090909,24.1272727 12.9688312,24.1272727 Z" id="Shape"></path>
                        <path d="M9.72727273,10.9116883 C10.6935065,10.9116883 11.4727273,9.97662338 11.4727273,8.79220779 C11.4727273,7.60779221 10.6935065,6.67272727 9.72727273,6.67272727 C8.76103896,6.67272727 7.98181818,7.60779221 7.98181818,8.79220779 C7.98181818,9.97662338 8.76103896,10.9116883 9.72727273,10.9116883 Z M9.72727273,7.2961039 C10.3506494,7.2961039 10.8493506,7.95064935 10.8493506,8.79220779 C10.8493506,9.13506494 10.7558442,9.47792208 10.6,9.72727273 C10.6,9.6961039 10.6,9.6961039 10.6,9.66493506 C10.6,9.16623377 10.1948052,8.79220779 9.72727273,8.79220779 C9.22857143,8.79220779 8.85454545,9.1974026 8.85454545,9.66493506 C8.85454545,9.6961039 8.85454545,9.6961039 8.85454545,9.72727273 C8.6987013,9.47792208 8.60519481,9.16623377 8.60519481,8.79220779 C8.57402597,7.98181818 9.1038961,7.2961039 9.72727273,7.2961039 Z" id="Shape"></path>
                        <path d="M16.2103896,10.9116883 C17.1766234,10.9116883 17.9558442,9.97662338 17.9558442,8.79220779 C17.9558442,7.60779221 17.1766234,6.67272727 16.2103896,6.67272727 C15.2441558,6.67272727 14.4649351,7.60779221 14.4649351,8.79220779 C14.4649351,9.97662338 15.2441558,10.9116883 16.2103896,10.9116883 Z M16.2103896,7.2961039 C16.8337662,7.2961039 17.3324675,7.95064935 17.3324675,8.79220779 C17.3324675,9.13506494 17.238961,9.47792208 17.0831169,9.72727273 C17.0831169,9.6961039 17.0831169,9.6961039 17.0831169,9.66493506 C17.0831169,9.16623377 16.6779221,8.79220779 16.2103896,8.79220779 C15.7428571,8.79220779 15.3376623,9.1974026 15.3376623,9.66493506 C15.3376623,9.6961039 15.3376623,9.6961039 15.3376623,9.72727273 C15.1818182,9.47792208 15.0883117,9.16623377 15.0883117,8.79220779 C15.0883117,7.98181818 15.587013,7.2961039 16.2103896,7.2961039 Z" id="Shape"></path>
                        <path d="M12.9376623,14.3090909 C9.6961039,14.3090909 7.04675325,16.6155844 7.04675325,19.4519481 C7.04675325,19.638961 7.17142857,19.7636364 7.35844156,19.7636364 C7.54545455,19.7636364 7.67012987,19.638961 7.67012987,19.4519481 C7.67012987,16.9584416 10.038961,14.9324675 12.9376623,14.9324675 C15.8363636,14.9324675 18.2051948,16.9584416 18.2051948,19.4519481 C18.2051948,19.638961 18.3298701,19.7636364 18.5168831,19.7636364 C18.7038961,19.7636364 18.8285714,19.638961 18.8285714,19.4519481 C18.8285714,16.6155844 16.1792208,14.3090909 12.9376623,14.3090909 Z" id="Shape"></path>
                    </g>
                </g>
            </g>
        </g>
    </g>
</svg>