<?xml version="1.0" encoding="UTF-8"?>
<svg width="26px" height="26px" viewBox="0 0 26 26" version="1.1" xmlns="http://www.w3.org/2000/svg" xmlns:xlink="http://www.w3.org/1999/xlink">
    <!-- Generator: Sketch 51.1 (57501) - http://www.bohemiancoding.com/sketch -->
    <title>noun_820385_cc</title>
    <desc>Created with Sketch.</desc>
    <defs></defs>
    <g id="Page-1" stroke="none" stroke-width="1" fill="none" fill-rule="evenodd">
        <g id="fl&gt;review" transform="translate(-1040.000000, -944.000000)" fill="#000000" fill-rule="nonzero">
            <g id="votes" transform="translate(381.000000, 897.000000)">
                <g id="Group" transform="translate(659.000000, 47.000000)">
                    <g id="noun_820385_cc">
                        <path d="M12.8753247,0.749350649 C6.11707552,0.749350649 0.593506494,6.24042809 0.593506494,13.0311688 C0.593506494,19.8219096 6.08458393,25.312987 12.8753247,25.312987 C19.6660654,25.312987 25.1571429,19.8219096 25.1571429,13.0311688 C25.1571429,6.24042809 19.6660654,0.749350649 12.8753247,0.749350649 Z M12.8753247,24.1272727 C6.73506494,24.1272727 1.71688312,19.1402597 1.71688312,12.9688312 C1.71688312,6.7974026 6.7038961,1.81038961 12.8753247,1.81038961 C19.0467532,1.81038961 24.0337662,6.7974026 24.0337662,12.9688312 C24.0337662,19.1402597 19.0467532,24.1272727 12.8753247,24.1272727 Z" id="Shape"></path>
                        <path d="M9.63376623,10.9116883 C10.6,10.9116883 11.3792208,9.97662338 11.3792208,8.79220779 C11.3792208,7.60779221 10.6,6.67272727 9.63376623,6.67272727 C8.66753247,6.67272727 7.88831169,7.60779221 7.88831169,8.79220779 C7.88831169,9.97662338 8.66753247,10.9116883 9.63376623,10.9116883 Z M9.63376623,7.2961039 C10.2571429,7.2961039 10.7558442,7.95064935 10.7558442,8.79220779 C10.7558442,9.13506494 10.6623377,9.47792208 10.5064935,9.72727273 C10.5064935,9.6961039 10.5064935,9.6961039 10.5064935,9.66493506 C10.5064935,9.16623377 10.1012987,8.79220779 9.63376623,8.79220779 C9.13506494,8.79220779 8.76103896,9.1974026 8.76103896,9.66493506 C8.76103896,9.6961039 8.76103896,9.6961039 8.76103896,9.72727273 C8.60519481,9.47792208 8.51168831,9.16623377 8.51168831,8.79220779 C8.51168831,7.98181818 9.01038961,7.2961039 9.63376623,7.2961039 Z" id="Shape"></path>
                        <path d="M16.1480519,10.9116883 C17.1142857,10.9116883 17.8935065,9.97662338 17.8935065,8.79220779 C17.8935065,7.60779221 17.1142857,6.67272727 16.1480519,6.67272727 C15.1818182,6.67272727 14.4025974,7.63896104 14.4025974,8.79220779 C14.4025974,9.94545455 15.1818182,10.9116883 16.1480519,10.9116883 Z M16.1480519,7.2961039 C16.7714286,7.2961039 17.2701299,7.95064935 17.2701299,8.79220779 C17.2701299,9.13506494 17.1766234,9.47792208 17.0207792,9.72727273 C17.0207792,9.6961039 17.0207792,9.6961039 17.0207792,9.66493506 C17.0207792,9.16623377 16.6155844,8.79220779 16.1480519,8.79220779 C15.6805195,8.79220779 15.2753247,9.1974026 15.2753247,9.66493506 C15.2753247,9.6961039 15.2753247,9.6961039 15.2753247,9.72727273 C15.1194805,9.47792208 15.025974,9.16623377 15.025974,8.79220779 C15.025974,7.98181818 15.5246753,7.2961039 16.1480519,7.2961039 Z" id="Shape"></path>
                        <path d="M18.4233766,14.3090909 C18.2363636,14.3090909 18.1116883,14.4337662 18.1116883,14.6207792 C18.1116883,17.1142857 15.7428571,19.1402597 12.8441558,19.1402597 C9.94545455,19.1402597 7.57662338,17.1142857 7.57662338,14.6207792 C7.57662338,14.4337662 7.45194805,14.3090909 7.26493506,14.3090909 C7.07792208,14.3090909 6.95324675,14.4337662 6.95324675,14.6207792 C6.95324675,17.4571429 9.6025974,19.7636364 12.8441558,19.7636364 C16.0857143,19.7636364 18.7350649,17.4571429 18.7350649,14.6207792 C18.7350649,14.4337662 18.6103896,14.3090909 18.4233766,14.3090909 Z" id="Shape"></path>
                    </g>
                </g>
            </g>
        </g>
    </g>
</svg>